<?xml version="1.0" encoding="UTF-8"?>
<!DOCTYPE svg PUBLIC "-//W3C//DTD SVG 1.1//EN" "http://www.w3.org/Graphics/SVG/1.1/DTD/svg11.dtd">
<!-- Creator: CorelDRAW 2021 (64-Bit) -->
<svg xmlns="http://www.w3.org/2000/svg" xml:space="preserve" width="366px" height="1775px" version="1.1" style="shape-rendering:geometricPrecision; text-rendering:geometricPrecision; image-rendering:optimizeQuality; fill-rule:evenodd; clip-rule:evenodd"
viewBox="0 0 187.05 908.23"
 xmlns:xlink="http://www.w3.org/1999/xlink"
 xmlns:xodm="http://www.corel.com/coreldraw/odm/2003">
 <defs>
  <style type="text/css">
   <![CDATA[
    .fil0 {fill:url(#id0)}
   ]]>
  </style>
  <linearGradient id="id0" gradientUnits="userSpaceOnUse" x1="82.68" y1="908.23" x2="82.68" y2="160.28">
   <stop offset="0" style="stop-opacity:1; stop-color:#FEEA16"/>
   <stop offset="1" style="stop-opacity:1; stop-color:#996900"/>
  </linearGradient>
 </defs>
 <g id="Capa_x0020_1">
  <metadata id="CorelCorpID_0Corel-Layer"/>
  <path class="fil0" d="M0 0l26.72 0 0 26.72 -26.72 0 0 -26.72zm160.33 53.43l26.72 0 0 26.72 -26.72 0 0 -26.72zm26.72 828.09l0 26.71 -26.72 0 -26.73 0 -26.72 0 -26.72 0 -26.72 0 -26.72 0 -26.72 0 0 -26.71 0 -0.01 0 -26.7 0 -0.01 0 -26.7 0 -0.01 0 -26.71 0 0 0 -26.71 0 -0.01 0 -26.7 0 -0.01 0 -26.7 0 -0.01 0 -26.71 0 0 0 -26.71 0 -0.01 0 -26.7 0 -0.01 0 -26.7 0 -0.01 0 -26.71 0 0 0 -26.71 0 -0.01 0 -26.7 0 -0.01 0 -26.7 0 -0.01 0 -26.71 0 0 0 -26.71 0 -0.01 0 -26.71 26.72 0 0 -26.7 -26.72 0 0 -26.72 26.72 0 0 -26.71 -26.72 0 0 -26.72 26.72 0 0 -26.7 -26.72 0 0 -26.72 26.72 0 0 26.71 26.72 0 0 -26.71 26.72 0 0 26.71 26.72 0 0 -26.71 26.72 0 0 26.71 26.73 0 0 -26.71 26.72 0 0 26.72 -26.72 0 0 26.7 26.72 0 0 26.72 -26.72 0 0 26.71 26.72 0 0 26.72 -26.72 0 0 26.7 26.72 0 0 26.71 0 0.01 0 26.71 0 0 0 26.71 0 0.01 0 26.7 0 0.01 0 26.7 0 0.01 0 26.71 0 0 0 26.71 0 0.01 0 26.7 0 0.01 0 26.7 0 0.01 0 26.71 0 0 0 26.71 0 0.01 0 26.7 0 0.01 0 26.7 0 0.01 0 26.71 0 0 0 26.71 0 0.01 0 26.7 0 0.01 0 26.7 0 0.01zm-26.72 -213.71l0 -26.7 -26.73 0 0 26.7 26.73 0zm0 -106.85l0 -26.7 -26.73 0 0 26.7 26.73 0zm0 -53.42l0 -26.71 -26.73 0 0 26.71 26.73 0zm0 -53.43l0 -26.7 -26.73 0 0 26.7 26.73 0zm0 -53.42l0 -26.71 -26.73 0 0 26.71 26.73 0zm0 -53.43l0 -26.7 -26.73 0 0 26.7 26.73 0zm0 -133.56l26.72 0 0 26.72 -26.72 0 0 -26.72zm0 -53.42l26.72 0 0 26.72 -26.72 0 0 -26.72zm-26.73 160.27l0 -26.7 -26.72 0 0 26.7 26.72 0zm0 106.85l0 -26.7 -26.72 0 0 26.7 26.72 0zm0 -53.42l0 -26.71 -26.72 0 0 26.71 26.72 0zm-26.72 -240.42l26.72 0 0 26.72 -26.72 0 0 -26.72zm0 614.39l0 -26.7 -26.72 0 0 26.7 26.72 0zm0 -160.27l0 -26.71 -26.72 0 0 26.71 26.72 0zm0 -53.43l0 -26.7 -26.72 0 0 26.7 26.72 0zm0 -53.42l0 -26.71 -26.72 0 0 26.71 26.72 0zm0 -80.14l0 -26.71 -26.72 0 0 26.71 26.72 0zm0 -53.43l0 -26.7 -26.72 0 0 26.7 26.72 0zm0 -133.56l26.72 0 0 26.72 -26.72 0 0 -26.72zm-26.72 106.85l0 -26.7 -26.72 0 0 26.7 26.72 0zm0 106.85l0 -26.7 -26.72 0 0 26.7 26.72 0zm0 -53.42l0 -26.71 -26.72 0 0 26.71 26.72 0zm-26.72 -320.55l26.72 0 0 26.72 -26.72 0 0 -26.72zm0 614.38l0 -26.7 -26.72 0 0 26.7 26.72 0zm0 -106.85l0 -26.7 -26.72 0 0 26.7 26.72 0zm0 -53.42l0 -26.71 -26.72 0 0 26.71 26.72 0zm0 -53.43l0 -26.7 -26.72 0 0 26.7 26.72 0zm0 -53.42l0 -26.71 -26.72 0 0 26.71 26.72 0zm0 -53.43l0 -26.7 -26.72 0 0 26.7 26.72 0zm0 -133.56l26.72 0 0 26.72 -26.72 0 0 -26.72zm0 -53.42l26.72 0 0 26.72 -26.72 0 0 -26.72zm-53.44 53.42l26.72 0 0 26.72 -26.72 0 0 -26.72zm0 -80.14l26.72 0 0 26.72 -26.72 0 0 -26.72z"/>
 </g>
</svg>
